<mxfile host="app.diagrams.net" agent="Mozilla/5.0 (Windows NT 10.0; Win64; x64) AppleWebKit/537.36 (KHTML, like Gecko) Chrome/128.0.0.0 Safari/537.36" version="24.7.10">
  <diagram id="C5RBs43oDa-KdzZeNtuy" name="Page-1">
    <mxGraphModel dx="1290" dy="618" grid="1" gridSize="10" guides="1" tooltips="1" connect="1" arrows="1" fold="1" page="1" pageScale="1" pageWidth="827" pageHeight="1169" math="0" shadow="0">
      <root>
        <mxCell id="WIyWlLk6GJQsqaUBKTNV-0" />
        <mxCell id="WIyWlLk6GJQsqaUBKTNV-1" parent="WIyWlLk6GJQsqaUBKTNV-0" />
        <mxCell id="HLvTlGWb5vuloCqMxh1C-2" value="" style="edgeStyle=orthogonalEdgeStyle;rounded=0;orthogonalLoop=1;jettySize=auto;html=1;" edge="1" parent="WIyWlLk6GJQsqaUBKTNV-1" source="HLvTlGWb5vuloCqMxh1C-0" target="HLvTlGWb5vuloCqMxh1C-1">
          <mxGeometry relative="1" as="geometry" />
        </mxCell>
        <mxCell id="HLvTlGWb5vuloCqMxh1C-0" value="Start" style="ellipse;whiteSpace=wrap;html=1;" vertex="1" parent="WIyWlLk6GJQsqaUBKTNV-1">
          <mxGeometry x="360" y="40" width="120" height="80" as="geometry" />
        </mxCell>
        <mxCell id="HLvTlGWb5vuloCqMxh1C-4" value="" style="edgeStyle=orthogonalEdgeStyle;rounded=0;orthogonalLoop=1;jettySize=auto;html=1;" edge="1" parent="WIyWlLk6GJQsqaUBKTNV-1" source="HLvTlGWb5vuloCqMxh1C-1" target="HLvTlGWb5vuloCqMxh1C-3">
          <mxGeometry relative="1" as="geometry" />
        </mxCell>
        <mxCell id="HLvTlGWb5vuloCqMxh1C-6" value="" style="edgeStyle=orthogonalEdgeStyle;rounded=0;orthogonalLoop=1;jettySize=auto;html=1;" edge="1" parent="WIyWlLk6GJQsqaUBKTNV-1" source="HLvTlGWb5vuloCqMxh1C-1" target="HLvTlGWb5vuloCqMxh1C-5">
          <mxGeometry relative="1" as="geometry" />
        </mxCell>
        <mxCell id="HLvTlGWb5vuloCqMxh1C-1" value="&lt;span class=&quot;fontstyle0&quot;&gt;Celsius to Fahrenheit or vice versa?&lt;/span&gt;" style="rhombus;whiteSpace=wrap;html=1;" vertex="1" parent="WIyWlLk6GJQsqaUBKTNV-1">
          <mxGeometry x="351" y="160" width="138" height="80" as="geometry" />
        </mxCell>
        <mxCell id="HLvTlGWb5vuloCqMxh1C-10" value="" style="edgeStyle=orthogonalEdgeStyle;rounded=0;orthogonalLoop=1;jettySize=auto;html=1;" edge="1" parent="WIyWlLk6GJQsqaUBKTNV-1" source="HLvTlGWb5vuloCqMxh1C-3" target="HLvTlGWb5vuloCqMxh1C-8">
          <mxGeometry relative="1" as="geometry" />
        </mxCell>
        <mxCell id="HLvTlGWb5vuloCqMxh1C-3" value="&lt;span class=&quot;fontstyle0&quot;&gt;Converting Fahrenheit to Celsius&lt;/span&gt;" style="rounded=0;whiteSpace=wrap;html=1;" vertex="1" parent="WIyWlLk6GJQsqaUBKTNV-1">
          <mxGeometry x="560" y="170" width="120" height="60" as="geometry" />
        </mxCell>
        <mxCell id="HLvTlGWb5vuloCqMxh1C-9" value="" style="edgeStyle=orthogonalEdgeStyle;rounded=0;orthogonalLoop=1;jettySize=auto;html=1;" edge="1" parent="WIyWlLk6GJQsqaUBKTNV-1" source="HLvTlGWb5vuloCqMxh1C-5" target="HLvTlGWb5vuloCqMxh1C-7">
          <mxGeometry relative="1" as="geometry" />
        </mxCell>
        <mxCell id="HLvTlGWb5vuloCqMxh1C-5" value="&lt;span class=&quot;fontstyle0&quot;&gt;Converting Celsius to Fahrenheit&lt;/span&gt;" style="rounded=0;whiteSpace=wrap;html=1;" vertex="1" parent="WIyWlLk6GJQsqaUBKTNV-1">
          <mxGeometry x="160" y="170" width="120" height="60" as="geometry" />
        </mxCell>
        <mxCell id="HLvTlGWb5vuloCqMxh1C-16" value="" style="edgeStyle=orthogonalEdgeStyle;rounded=0;orthogonalLoop=1;jettySize=auto;html=1;" edge="1" parent="WIyWlLk6GJQsqaUBKTNV-1" source="HLvTlGWb5vuloCqMxh1C-7" target="HLvTlGWb5vuloCqMxh1C-11">
          <mxGeometry relative="1" as="geometry" />
        </mxCell>
        <mxCell id="HLvTlGWb5vuloCqMxh1C-7" value="&lt;span class=&quot;fontstyle0&quot;&gt;input temperature&lt;/span&gt;" style="shape=parallelogram;perimeter=parallelogramPerimeter;whiteSpace=wrap;html=1;fixedSize=1;" vertex="1" parent="WIyWlLk6GJQsqaUBKTNV-1">
          <mxGeometry x="160" y="280" width="120" height="60" as="geometry" />
        </mxCell>
        <mxCell id="HLvTlGWb5vuloCqMxh1C-17" value="" style="edgeStyle=orthogonalEdgeStyle;rounded=0;orthogonalLoop=1;jettySize=auto;html=1;" edge="1" parent="WIyWlLk6GJQsqaUBKTNV-1" source="HLvTlGWb5vuloCqMxh1C-8" target="HLvTlGWb5vuloCqMxh1C-12">
          <mxGeometry relative="1" as="geometry" />
        </mxCell>
        <mxCell id="HLvTlGWb5vuloCqMxh1C-8" value="&lt;span class=&quot;fontstyle0&quot;&gt;input temperature&lt;/span&gt;" style="shape=parallelogram;perimeter=parallelogramPerimeter;whiteSpace=wrap;html=1;fixedSize=1;" vertex="1" parent="WIyWlLk6GJQsqaUBKTNV-1">
          <mxGeometry x="560" y="280" width="120" height="60" as="geometry" />
        </mxCell>
        <mxCell id="HLvTlGWb5vuloCqMxh1C-18" value="" style="edgeStyle=orthogonalEdgeStyle;rounded=0;orthogonalLoop=1;jettySize=auto;html=1;" edge="1" parent="WIyWlLk6GJQsqaUBKTNV-1" source="HLvTlGWb5vuloCqMxh1C-11" target="HLvTlGWb5vuloCqMxh1C-13">
          <mxGeometry relative="1" as="geometry" />
        </mxCell>
        <mxCell id="HLvTlGWb5vuloCqMxh1C-11" value="F = (C * (9/5)) + 32" style="rhombus;whiteSpace=wrap;html=1;" vertex="1" parent="WIyWlLk6GJQsqaUBKTNV-1">
          <mxGeometry x="160" y="390" width="120" height="80" as="geometry" />
        </mxCell>
        <mxCell id="HLvTlGWb5vuloCqMxh1C-19" value="" style="edgeStyle=orthogonalEdgeStyle;rounded=0;orthogonalLoop=1;jettySize=auto;html=1;" edge="1" parent="WIyWlLk6GJQsqaUBKTNV-1" source="HLvTlGWb5vuloCqMxh1C-12" target="HLvTlGWb5vuloCqMxh1C-14">
          <mxGeometry relative="1" as="geometry" />
        </mxCell>
        <mxCell id="HLvTlGWb5vuloCqMxh1C-12" value="C = (F - 32) * (5/9)" style="rhombus;whiteSpace=wrap;html=1;" vertex="1" parent="WIyWlLk6GJQsqaUBKTNV-1">
          <mxGeometry x="560" y="390" width="120" height="80" as="geometry" />
        </mxCell>
        <mxCell id="HLvTlGWb5vuloCqMxh1C-13" value="Print Fahrenheit" style="rounded=0;whiteSpace=wrap;html=1;" vertex="1" parent="WIyWlLk6GJQsqaUBKTNV-1">
          <mxGeometry x="160" y="520" width="120" height="60" as="geometry" />
        </mxCell>
        <mxCell id="HLvTlGWb5vuloCqMxh1C-14" value="Print Celsius" style="rounded=0;whiteSpace=wrap;html=1;" vertex="1" parent="WIyWlLk6GJQsqaUBKTNV-1">
          <mxGeometry x="560" y="520" width="120" height="60" as="geometry" />
        </mxCell>
        <mxCell id="HLvTlGWb5vuloCqMxh1C-15" value="End" style="ellipse;whiteSpace=wrap;html=1;" vertex="1" parent="WIyWlLk6GJQsqaUBKTNV-1">
          <mxGeometry x="354" y="610" width="120" height="80" as="geometry" />
        </mxCell>
        <mxCell id="HLvTlGWb5vuloCqMxh1C-20" value="" style="endArrow=classic;html=1;rounded=0;exitX=0.5;exitY=1;exitDx=0;exitDy=0;entryX=0;entryY=0.5;entryDx=0;entryDy=0;" edge="1" parent="WIyWlLk6GJQsqaUBKTNV-1" source="HLvTlGWb5vuloCqMxh1C-13" target="HLvTlGWb5vuloCqMxh1C-15">
          <mxGeometry width="50" height="50" relative="1" as="geometry">
            <mxPoint x="390" y="520" as="sourcePoint" />
            <mxPoint x="440" y="470" as="targetPoint" />
            <Array as="points">
              <mxPoint x="220" y="650" />
            </Array>
          </mxGeometry>
        </mxCell>
        <mxCell id="HLvTlGWb5vuloCqMxh1C-21" value="" style="endArrow=classic;html=1;rounded=0;exitX=0.5;exitY=1;exitDx=0;exitDy=0;entryX=1;entryY=0.5;entryDx=0;entryDy=0;" edge="1" parent="WIyWlLk6GJQsqaUBKTNV-1" source="HLvTlGWb5vuloCqMxh1C-14" target="HLvTlGWb5vuloCqMxh1C-15">
          <mxGeometry width="50" height="50" relative="1" as="geometry">
            <mxPoint x="390" y="520" as="sourcePoint" />
            <mxPoint x="440" y="470" as="targetPoint" />
            <Array as="points">
              <mxPoint x="620" y="650" />
            </Array>
          </mxGeometry>
        </mxCell>
      </root>
    </mxGraphModel>
  </diagram>
</mxfile>
